NotoSansBatak-Regular.ufo
<glyph name="uni1BC3" format="2">
  <advance width="1056"/>
  <unicode hex="1BC3"/>
  <outline>
    <contour>
      <point x="92" y="256" type="curve" smooth="yes"/>
      <point x="99" y="256"/>
      <point x="106" y="259"/>
      <point x="115" y="262" type="curve" smooth="yes"/>
      <point x="302" y="334"/>
      <point x="433" y="339"/>
      <point x="527" y="339" type="curve" smooth="yes"/>
      <point x="668" y="339"/>
      <point x="816" y="325"/>
      <point x="927" y="285" type="curve" smooth="yes"/>
      <point x="935" y="282"/>
      <point x="955" y="273"/>
      <point x="962" y="273" type="curve" smooth="yes"/>
      <point x="987" y="273"/>
      <point x="1002" y="298"/>
      <point x="1002" y="320" type="curve" smooth="yes"/>
      <point x="1002" y="333"/>
      <point x="997" y="348"/>
      <point x="987" y="354" type="curve" smooth="yes"/>
      <point x="880" y="415"/>
      <point x="644" y="427"/>
      <point x="527" y="427" type="curve" smooth="yes"/>
      <point x="430" y="427"/>
      <point x="224" y="407"/>
      <point x="72" y="334" type="curve" smooth="yes"/>
      <point x="58" y="327"/>
      <point x="54" y="313"/>
      <point x="54" y="301" type="curve" smooth="yes"/>
      <point x="54" y="278"/>
      <point x="68" y="256"/>
    </contour>
    <contour>
      <point x="311" y="-5" type="curve" smooth="yes"/>
      <point x="331" y="-5"/>
      <point x="360" y="0"/>
      <point x="405" y="0" type="curve" smooth="yes"/>
      <point x="442" y="0"/>
      <point x="478" y="-5"/>
      <point x="498" y="-5" type="curve" smooth="yes"/>
      <point x="522" y="-5"/>
      <point x="539" y="16"/>
      <point x="539" y="38" type="curve" smooth="yes"/>
      <point x="539" y="81"/>
      <point x="476" y="88"/>
      <point x="405" y="88" type="curve" smooth="yes"/>
      <point x="333" y="88"/>
      <point x="270" y="82"/>
      <point x="270" y="38" type="curve" smooth="yes"/>
      <point x="270" y="16"/>
      <point x="286" y="-5"/>
    </contour>
    <contour>
      <point x="760" y="-5" type="curve" smooth="yes"/>
      <point x="780" y="-5"/>
      <point x="809" y="0"/>
      <point x="854" y="0" type="curve" smooth="yes"/>
      <point x="892" y="0"/>
      <point x="927" y="-5"/>
      <point x="947" y="-5" type="curve" smooth="yes"/>
      <point x="972" y="-5"/>
      <point x="988" y="16"/>
      <point x="988" y="38" type="curve" smooth="yes"/>
      <point x="988" y="81"/>
      <point x="928" y="88"/>
      <point x="854" y="88" type="curve" smooth="yes"/>
      <point x="782" y="88"/>
      <point x="719" y="82"/>
      <point x="719" y="38" type="curve" smooth="yes"/>
      <point x="719" y="16"/>
      <point x="735" y="-5"/>
    </contour>
  </outline>
</glyph>
<glyph name="uni1BC5" format="2">
  <advance width="1070"/>
  <unicode hex="1BC5"/>
  <outline>
    <contour>
      <point x="248" y="-10" type="curve" smooth="yes"/>
      <point x="292" y="-10"/>
      <point x="338" y="0"/>
      <point x="383" y="28" type="curve" smooth="yes"/>
      <point x="535" y="122" type="line"/>
      <point x="662" y="42" type="line" smooth="yes"/>
      <point x="693" y="23"/>
      <point x="746" y="-10"/>
      <point x="817" y="-10" type="curve" smooth="yes"/>
      <point x="907" y="-10"/>
      <point x="1001" y="57"/>
      <point x="1001" y="206" type="curve" smooth="yes"/>
      <point x="1001" y="257"/>
      <point x="993" y="340"/>
      <point x="911" y="390" type="curve" smooth="yes"/>
      <point x="795" y="461"/>
      <point x="645" y="479"/>
      <point x="536" y="479" type="curve" smooth="yes"/>
      <point x="425" y="479"/>
      <point x="273" y="464"/>
      <point x="159" y="390" type="curve" smooth="yes"/>
      <point x="101" y="352"/>
      <point x="68" y="304"/>
      <point x="68" y="194" type="curve" smooth="yes"/>
      <point x="68" y="49"/>
      <point x="176" y="-10"/>
    </contour>
    <contour>
      <point x="257" y="78" type="curve" smooth="yes"/>
      <point x="177" y="78"/>
      <point x="158" y="153"/>
      <point x="158" y="209" type="curve" smooth="yes"/>
      <point x="158" y="255"/>
      <point x="177" y="294"/>
      <point x="224" y="321" type="curve" smooth="yes"/>
      <point x="321" y="377"/>
      <point x="439" y="391"/>
      <point x="535" y="391" type="curve" smooth="yes"/>
      <point x="632" y="391"/>
      <point x="755" y="375"/>
      <point x="850" y="320" type="curve" smooth="yes"/>
      <point x="892" y="296"/>
      <point x="912" y="251"/>
      <point x="912" y="209" type="curve" smooth="yes"/>
      <point x="912" y="129"/>
      <point x="874" y="78"/>
      <point x="813" y="78" type="curve" smooth="yes"/>
      <point x="801" y="78"/>
      <point x="771" y="81"/>
      <point x="712" y="119" type="curve" smooth="yes"/>
      <point x="602" y="190" type="line" smooth="yes"/>
      <point x="580" y="204"/>
      <point x="553" y="210"/>
      <point x="535" y="210" type="curve" smooth="yes"/>
      <point x="513" y="210"/>
      <point x="483" y="201"/>
      <point x="465" y="189" type="curve" smooth="yes"/>
      <point x="327" y="101" type="line" smooth="yes"/>
      <point x="322" y="98"/>
      <point x="286" y="78"/>
    </contour>
  </outline>
</glyph>
<glyph name="uni1BC6" format="2">
  <advance width="990"/>
  <unicode hex="1BC6"/>
  <outline>
    <contour>
      <point x="495" y="-10" type="curve" smooth="yes"/>
      <point x="725" y="-10"/>
      <point x="922" y="61"/>
      <point x="922" y="234" type="curve" smooth="yes"/>
      <point x="922" y="409"/>
      <point x="719" y="479"/>
      <point x="495" y="479" type="curve" smooth="yes"/>
      <point x="279" y="479"/>
      <point x="68" y="409"/>
      <point x="68" y="234" type="curve" smooth="yes"/>
      <point x="68" y="64"/>
      <point x="254" y="-10"/>
    </contour>
    <contour>
      <point x="495" y="78" type="curve" smooth="yes"/>
      <point x="332" y="78"/>
      <point x="163" y="116"/>
      <point x="163" y="234" type="curve" smooth="yes"/>
      <point x="163" y="353"/>
      <point x="335" y="391"/>
      <point x="495" y="391" type="curve" smooth="yes"/>
      <point x="655" y="391"/>
      <point x="827" y="351"/>
      <point x="827" y="234" type="curve" smooth="yes"/>
      <point x="827" y="120"/>
      <point x="664" y="78"/>
    </contour>
  </outline>
</glyph>
<glyph name="uni1BC7" format="2">
  <advance width="840"/>
  <unicode hex="1BC7"/>
  <outline>
    <contour>
      <point x="95" y="313" type="curve" smooth="yes"/>
      <point x="120" y="313"/>
      <point x="220" y="339"/>
      <point x="420" y="339" type="curve" smooth="yes"/>
      <point x="652" y="339"/>
      <point x="726" y="325"/>
      <point x="745" y="325" type="curve" smooth="yes"/>
      <point x="770" y="325"/>
      <point x="786" y="346"/>
      <point x="786" y="369" type="curve" smooth="yes"/>
      <point x="786" y="388"/>
      <point x="776" y="406"/>
      <point x="751" y="410" type="curve" smooth="yes"/>
      <point x="705" y="417"/>
      <point x="617" y="427"/>
      <point x="420" y="427" type="curve" smooth="yes"/>
      <point x="234" y="427"/>
      <point x="117" y="405"/>
      <point x="88" y="398" type="curve" smooth="yes"/>
      <point x="65" y="392"/>
      <point x="54" y="376"/>
      <point x="54" y="357" type="curve" smooth="yes"/>
      <point x="54" y="334"/>
      <point x="70" y="313"/>
    </contour>
  </outline>
</glyph>
<glyph name="uni1BCC" format="2">
  <advance width="1056"/>
  <unicode hex="1BCC"/>
  <outline>
    <contour>
      <point x="92" y="256" type="curve" smooth="yes"/>
      <point x="99" y="256"/>
      <point x="106" y="259"/>
      <point x="115" y="262" type="curve" smooth="yes"/>
      <point x="302" y="334"/>
      <point x="433" y="339"/>
      <point x="527" y="339" type="curve" smooth="yes"/>
      <point x="668" y="339"/>
      <point x="816" y="325"/>
      <point x="927" y="285" type="curve" smooth="yes"/>
      <point x="935" y="282"/>
      <point x="955" y="273"/>
      <point x="962" y="273" type="curve" smooth="yes"/>
      <point x="987" y="273"/>
      <point x="1002" y="298"/>
      <point x="1002" y="320" type="curve" smooth="yes"/>
      <point x="1002" y="333"/>
      <point x="997" y="348"/>
      <point x="987" y="354" type="curve" smooth="yes"/>
      <point x="880" y="415"/>
      <point x="644" y="427"/>
      <point x="527" y="427" type="curve" smooth="yes"/>
      <point x="430" y="427"/>
      <point x="224" y="407"/>
      <point x="72" y="334" type="curve" smooth="yes"/>
      <point x="58" y="327"/>
      <point x="54" y="313"/>
      <point x="54" y="301" type="curve" smooth="yes"/>
      <point x="54" y="278"/>
      <point x="68" y="256"/>
    </contour>
    <contour>
      <point x="119" y="-5" type="curve" smooth="yes"/>
      <point x="138" y="-5"/>
      <point x="167" y="0"/>
      <point x="212" y="0" type="curve" smooth="yes"/>
      <point x="250" y="0"/>
      <point x="286" y="-5"/>
      <point x="305" y="-5" type="curve" smooth="yes"/>
      <point x="330" y="-5"/>
      <point x="346" y="16"/>
      <point x="346" y="38" type="curve" smooth="yes"/>
      <point x="346" y="82"/>
      <point x="286" y="88"/>
      <point x="212" y="88" type="curve" smooth="yes"/>
      <point x="143" y="88"/>
      <point x="78" y="83"/>
      <point x="78" y="38" type="curve" smooth="yes"/>
      <point x="78" y="16"/>
      <point x="94" y="-5"/>
    </contour>
    <contour>
      <point x="770" y="-5" type="curve" smooth="yes"/>
      <point x="790" y="-5"/>
      <point x="819" y="0"/>
      <point x="864" y="0" type="curve" smooth="yes"/>
      <point x="901" y="0"/>
      <point x="937" y="-5"/>
      <point x="957" y="-5" type="curve" smooth="yes"/>
      <point x="981" y="-5"/>
      <point x="998" y="16"/>
      <point x="998" y="38" type="curve" smooth="yes"/>
      <point x="998" y="81"/>
      <point x="935" y="88"/>
      <point x="864" y="88" type="curve" smooth="yes"/>
      <point x="792" y="88"/>
      <point x="729" y="82"/>
      <point x="729" y="38" type="curve" smooth="yes"/>
      <point x="729" y="16"/>
      <point x="745" y="-5"/>
    </contour>
  </outline>
</glyph>
<glyph name="uni1BCE" format="2">
  <advance width="941"/>
  <unicode hex="1BCE"/>
  <outline>
    <contour>
      <point x="647" y="114" type="curve" smooth="yes"/>
      <point x="658" y="114"/>
      <point x="672" y="116"/>
      <point x="682" y="129" type="curve" smooth="yes"/>
      <point x="733" y="197"/>
      <point x="799" y="251"/>
      <point x="854" y="291" type="curve" smooth="yes"/>
      <point x="868" y="301"/>
      <point x="877" y="313"/>
      <point x="877" y="338" type="curve" smooth="yes"/>
      <point x="877" y="357"/>
      <point x="868" y="371"/>
      <point x="845" y="383" type="curve" smooth="yes"/>
      <point x="766" y="424"/>
      <point x="552" y="427"/>
      <point x="465" y="427" type="curve" smooth="yes"/>
      <point x="372" y="427"/>
      <point x="190" y="409"/>
      <point x="82" y="365" type="curve" smooth="yes"/>
      <point x="62" y="357"/>
      <point x="54" y="339"/>
      <point x="54" y="326" type="curve" smooth="yes"/>
      <point x="54" y="304"/>
      <point x="70" y="281"/>
      <point x="95" y="281" type="curve" smooth="yes"/>
      <point x="106" y="281"/>
      <point x="136" y="290"/>
      <point x="144" y="293" type="curve" smooth="yes"/>
      <point x="199" y="313"/>
      <point x="350" y="339"/>
      <point x="465" y="339" type="curve" smooth="yes"/>
      <point x="555" y="339"/>
      <point x="686" y="337"/>
      <point x="754" y="318" type="curve"/>
      <point x="697" y="275"/>
      <point x="651" y="235"/>
      <point x="617" y="194" type="curve" smooth="yes"/>
      <point x="609" y="185"/>
      <point x="602" y="169"/>
      <point x="602" y="157" type="curve" smooth="yes"/>
      <point x="602" y="133"/>
      <point x="626" y="114"/>
    </contour>
  </outline>
</glyph>
<glyph name="uni1BD5" format="2">
  <advance width="1088"/>
  <unicode hex="1BD5"/>
  <outline>
    <contour>
      <point x="418" y="128" type="curve" smooth="yes"/>
      <point x="441" y="128"/>
      <point x="459" y="140"/>
      <point x="472" y="149" type="curve" smooth="yes"/>
      <point x="559" y="206"/>
      <point x="628" y="251"/>
      <point x="693" y="286" type="curve" smooth="yes"/>
      <point x="800" y="343"/>
      <point x="896" y="377"/>
      <point x="969" y="396" type="curve" smooth="yes"/>
      <point x="1005" y="405"/>
      <point x="1021" y="411"/>
      <point x="1021" y="445" type="curve" smooth="yes"/>
      <point x="1021" y="459"/>
      <point x="1016" y="479"/>
      <point x="986" y="479" type="curve" smooth="yes"/>
      <point x="910" y="479"/>
      <point x="774" y="427"/>
      <point x="649" y="362" type="curve" smooth="yes"/>
      <point x="532" y="301"/>
      <point x="424" y="226"/>
      <point x="398" y="202" type="curve" smooth="yes"/>
      <point x="389" y="193"/>
      <point x="383" y="181"/>
      <point x="383" y="171" type="curve" smooth="yes"/>
      <point x="383" y="147"/>
      <point x="396" y="128"/>
    </contour>
    <contour>
      <point x="100" y="303" type="curve"/>
      <point x="112" y="303"/>
      <point x="127" y="310"/>
      <point x="140" y="318" type="curve" smooth="yes"/>
      <point x="167" y="335"/>
      <point x="255" y="391"/>
      <point x="401" y="391" type="curve" smooth="yes"/>
      <point x="500" y="391"/>
      <point x="543" y="383"/>
      <point x="557" y="383" type="curve" smooth="yes"/>
      <point x="580" y="383"/>
      <point x="592" y="407"/>
      <point x="592" y="436" type="curve" smooth="yes"/>
      <point x="592" y="478"/>
      <point x="500" y="479"/>
      <point x="401" y="479" type="curve" smooth="yes"/>
      <point x="284" y="479"/>
      <point x="150" y="436"/>
      <point x="99" y="393" type="curve" smooth="yes"/>
      <point x="77" y="375"/>
      <point x="63" y="361"/>
      <point x="63" y="345" type="curve" smooth="yes"/>
      <point x="63" y="316"/>
      <point x="81" y="303"/>
    </contour>
    <contour>
      <point x="979" y="-10" type="curve" smooth="yes"/>
      <point x="1002" y="-10"/>
      <point x="1025" y="12"/>
      <point x="1025" y="36" type="curve" smooth="yes"/>
      <point x="1025" y="57"/>
      <point x="1008" y="67"/>
      <point x="996" y="75" type="curve" smooth="yes"/>
      <point x="955" y="102"/>
      <point x="927" y="115"/>
      <point x="862" y="144" type="curve" smooth="yes"/>
      <point x="807" y="169"/>
      <point x="709" y="209"/>
      <point x="679" y="209" type="curve" smooth="yes"/>
      <point x="657" y="209"/>
      <point x="638" y="187"/>
      <point x="638" y="164" type="curve" smooth="yes"/>
      <point x="638" y="148"/>
      <point x="646" y="131"/>
      <point x="669" y="121" type="curve" smooth="yes"/>
      <point x="711" y="103"/>
      <point x="756" y="92"/>
      <point x="818" y="64" type="curve" smooth="yes"/>
      <point x="880" y="36"/>
      <point x="913" y="20"/>
      <point x="944" y="-2" type="curve" smooth="yes"/>
      <point x="952" y="-7"/>
      <point x="969" y="-10"/>
    </contour>
  </outline>
</glyph>
<glyph name="uni1BD9" format="2">
  <advance width="1056"/>
  <unicode hex="1BD9"/>
  <outline>
    <contour>
      <point x="92" y="256" type="curve" smooth="yes"/>
      <point x="99" y="256"/>
      <point x="106" y="259"/>
      <point x="115" y="262" type="curve" smooth="yes"/>
      <point x="302" y="334"/>
      <point x="433" y="339"/>
      <point x="527" y="339" type="curve" smooth="yes"/>
      <point x="668" y="339"/>
      <point x="816" y="325"/>
      <point x="927" y="285" type="curve" smooth="yes"/>
      <point x="935" y="282"/>
      <point x="955" y="273"/>
      <point x="962" y="273" type="curve" smooth="yes"/>
      <point x="987" y="273"/>
      <point x="1002" y="298"/>
      <point x="1002" y="320" type="curve" smooth="yes"/>
      <point x="1002" y="333"/>
      <point x="997" y="348"/>
      <point x="987" y="354" type="curve" smooth="yes"/>
      <point x="880" y="415"/>
      <point x="644" y="427"/>
      <point x="527" y="427" type="curve" smooth="yes"/>
      <point x="430" y="427"/>
      <point x="224" y="407"/>
      <point x="72" y="334" type="curve" smooth="yes"/>
      <point x="58" y="327"/>
      <point x="54" y="313"/>
      <point x="54" y="301" type="curve" smooth="yes"/>
      <point x="54" y="278"/>
      <point x="68" y="256"/>
    </contour>
    <contour>
      <point x="434" y="-5" type="curve" smooth="yes"/>
      <point x="453" y="-5"/>
      <point x="482" y="0"/>
      <point x="527" y="0" type="curve" smooth="yes"/>
      <point x="565" y="0"/>
      <point x="601" y="-5"/>
      <point x="620" y="-5" type="curve" smooth="yes"/>
      <point x="645" y="-5"/>
      <point x="661" y="16"/>
      <point x="661" y="38" type="curve" smooth="yes"/>
      <point x="661" y="81"/>
      <point x="600" y="88"/>
      <point x="527" y="88" type="curve" smooth="yes"/>
      <point x="458" y="88"/>
      <point x="393" y="83"/>
      <point x="393" y="38" type="curve" smooth="yes"/>
      <point x="393" y="16"/>
      <point x="409" y="-5"/>
    </contour>
  </outline>
</glyph>
<glyph name="uni1BDA" format="2">
  <advance width="1056"/>
  <unicode hex="1BDA"/>
  <outline>
    <contour>
      <point x="92" y="256" type="curve" smooth="yes"/>
      <point x="99" y="256"/>
      <point x="106" y="259"/>
      <point x="115" y="262" type="curve" smooth="yes"/>
      <point x="302" y="333"/>
      <point x="433" y="339"/>
      <point x="527" y="339" type="curve" smooth="yes"/>
      <point x="668" y="339"/>
      <point x="816" y="325"/>
      <point x="927" y="285" type="curve" smooth="yes"/>
      <point x="935" y="282"/>
      <point x="955" y="273"/>
      <point x="962" y="273" type="curve" smooth="yes"/>
      <point x="987" y="273"/>
      <point x="1002" y="298"/>
      <point x="1002" y="320" type="curve" smooth="yes"/>
      <point x="1002" y="333"/>
      <point x="997" y="348"/>
      <point x="987" y="354" type="curve" smooth="yes"/>
      <point x="880" y="415"/>
      <point x="644" y="427"/>
      <point x="527" y="427" type="curve" smooth="yes"/>
      <point x="430" y="427"/>
      <point x="224" y="407"/>
      <point x="72" y="334" type="curve" smooth="yes"/>
      <point x="58" y="327"/>
      <point x="54" y="313"/>
      <point x="54" y="301" type="curve" smooth="yes"/>
      <point x="54" y="278"/>
      <point x="68" y="256"/>
    </contour>
    <contour>
      <point x="562" y="-15" type="curve" smooth="yes"/>
      <point x="584" y="-15"/>
      <point x="607" y="0"/>
      <point x="607" y="24" type="curve" smooth="yes"/>
      <point x="607" y="75"/>
      <point x="388" y="326"/>
      <point x="330" y="378" type="curve"/>
      <point x="325" y="380"/>
      <point x="300" y="381"/>
      <point x="295" y="381" type="curve" smooth="yes"/>
      <point x="272" y="381"/>
      <point x="242" y="361"/>
      <point x="242" y="336" type="curve"/>
      <point x="357" y="213"/>
      <point x="410" y="167"/>
      <point x="519" y="8" type="curve" smooth="yes"/>
      <point x="528" y="-5"/>
      <point x="542" y="-15"/>
    </contour>
  </outline>
</glyph>
<glyph name="uni1BDE" format="2">
  <advance width="931"/>
  <unicode hex="1BDE"/>
  <outline>
    <contour>
      <point x="294" y="89" type="curve" smooth="yes"/>
      <point x="316" y="89"/>
      <point x="340" y="108"/>
      <point x="340" y="132" type="curve" smooth="yes"/>
      <point x="340" y="145"/>
      <point x="333" y="160"/>
      <point x="325" y="169" type="curve" smooth="yes"/>
      <point x="291" y="210"/>
      <point x="234" y="261"/>
      <point x="177" y="303" type="curve"/>
      <point x="245" y="322"/>
      <point x="388" y="339"/>
      <point x="466" y="339" type="curve" smooth="yes"/>
      <point x="548" y="339"/>
      <point x="732" y="328"/>
      <point x="788" y="308" type="curve" smooth="yes"/>
      <point x="795" y="305"/>
      <point x="825" y="295"/>
      <point x="836" y="295" type="curve" smooth="yes"/>
      <point x="861" y="295"/>
      <point x="877" y="318"/>
      <point x="877" y="341" type="curve" smooth="yes"/>
      <point x="877" y="354"/>
      <point x="869" y="371"/>
      <point x="850" y="379" type="curve" smooth="yes"/>
      <point x="741" y="424"/>
      <point x="541" y="427"/>
      <point x="466" y="427" type="curve" smooth="yes"/>
      <point x="379" y="427"/>
      <point x="166" y="410"/>
      <point x="86" y="368" type="curve" smooth="yes"/>
      <point x="63" y="356"/>
      <point x="54" y="342"/>
      <point x="54" y="323" type="curve" smooth="yes"/>
      <point x="54" y="298"/>
      <point x="62" y="287"/>
      <point x="77" y="276" type="curve" smooth="yes"/>
      <point x="132" y="237"/>
      <point x="209" y="172"/>
      <point x="260" y="104" type="curve" smooth="yes"/>
      <point x="270" y="91"/>
      <point x="284" y="89"/>
    </contour>
  </outline>
</glyph>
<glyph name="uni1BDF" format="2">
  <advance width="1056"/>
  <unicode hex="1BDF"/>
  <outline>
    <contour>
      <point x="92" y="254" type="curve" smooth="yes"/>
      <point x="99" y="254"/>
      <point x="106" y="257"/>
      <point x="115" y="260" type="curve" smooth="yes"/>
      <point x="302" y="332"/>
      <point x="392" y="339"/>
      <point x="527" y="339" type="curve" smooth="yes"/>
      <point x="668" y="339"/>
      <point x="791" y="320"/>
      <point x="927" y="266" type="curve" smooth="yes"/>
      <point x="935" y="263"/>
      <point x="955" y="254"/>
      <point x="962" y="254" type="curve" smooth="yes"/>
      <point x="987" y="254"/>
      <point x="1002" y="278"/>
      <point x="1002" y="301" type="curve" smooth="yes"/>
      <point x="1002" y="313"/>
      <point x="998" y="326"/>
      <point x="987" y="332" type="curve" smooth="yes"/>
      <point x="862" y="404"/>
      <point x="644" y="427"/>
      <point x="527" y="427" type="curve" smooth="yes"/>
      <point x="410" y="427"/>
      <point x="244" y="417"/>
      <point x="72" y="333" type="curve" smooth="yes"/>
      <point x="57" y="326"/>
      <point x="54" y="311"/>
      <point x="54" y="299" type="curve" smooth="yes"/>
      <point x="54" y="276"/>
      <point x="68" y="254"/>
    </contour>
    <contour>
      <point x="109" y="-5" type="curve" smooth="yes"/>
      <point x="128" y="-5"/>
      <point x="158" y="0"/>
      <point x="203" y="0" type="curve" smooth="yes"/>
      <point x="240" y="0"/>
      <point x="276" y="-5"/>
      <point x="295" y="-5" type="curve" smooth="yes"/>
      <point x="320" y="-5"/>
      <point x="336" y="16"/>
      <point x="336" y="38" type="curve" smooth="yes"/>
      <point x="336" y="81"/>
      <point x="275" y="88"/>
      <point x="203" y="88" type="curve" smooth="yes"/>
      <point x="131" y="88"/>
      <point x="68" y="82"/>
      <point x="68" y="38" type="curve" smooth="yes"/>
      <point x="68" y="16"/>
      <point x="84" y="-5"/>
    </contour>
  </outline>
</glyph>
<glyph name="uni1BE6" format="2">
  <unicode hex="1BE6"/>
  <outline>
    <contour>
      <point x="-521" y="691" type="curve" smooth="yes"/>
      <point x="-501" y="691"/>
      <point x="-472" y="696"/>
      <point x="-427" y="696" type="curve" smooth="yes"/>
      <point x="-389" y="696"/>
      <point x="-354" y="691"/>
      <point x="-334" y="691" type="curve" smooth="yes"/>
      <point x="-309" y="691"/>
      <point x="-293" y="701"/>
      <point x="-293" y="723" type="curve" smooth="yes"/>
      <point x="-293" y="761"/>
      <point x="-353" y="768"/>
      <point x="-427" y="768" type="curve" smooth="yes"/>
      <point x="-499" y="768"/>
      <point x="-562" y="761"/>
      <point x="-562" y="723" type="curve" smooth="yes"/>
      <point x="-562" y="701"/>
      <point x="-545" y="691"/>
    </contour>
    <contour>
      <point x="-521" y="552" type="curve" smooth="yes"/>
      <point x="-501" y="552"/>
      <point x="-472" y="557"/>
      <point x="-427" y="557" type="curve" smooth="yes"/>
      <point x="-389" y="557"/>
      <point x="-354" y="552"/>
      <point x="-334" y="552" type="curve" smooth="yes"/>
      <point x="-309" y="552"/>
      <point x="-293" y="562"/>
      <point x="-293" y="584" type="curve" smooth="yes"/>
      <point x="-293" y="622"/>
      <point x="-355" y="629"/>
      <point x="-427" y="629" type="curve" smooth="yes"/>
      <point x="-494" y="629"/>
      <point x="-562" y="623"/>
      <point x="-562" y="584" type="curve" smooth="yes"/>
      <point x="-562" y="562"/>
      <point x="-545" y="552"/>
    </contour>
  </outline>
</glyph>
<glyph name="uni1BE7" format="2">
  <advance width="318"/>
  <unicode hex="1BE7"/>
  <outline>
    <contour>
      <point x="55" y="0" type="curve" smooth="yes"/>
      <point x="94" y="0"/>
      <point x="270" y="147"/>
      <point x="270" y="192" type="curve" smooth="yes"/>
      <point x="270" y="237"/>
      <point x="94" y="385"/>
      <point x="55" y="385" type="curve" smooth="yes"/>
      <point x="33" y="385"/>
      <point x="15" y="370"/>
      <point x="15" y="345" type="curve" smooth="yes"/>
      <point x="15" y="333"/>
      <point x="19" y="318"/>
      <point x="34" y="308" type="curve" smooth="yes"/>
      <point x="75" y="281"/>
      <point x="133" y="239"/>
      <point x="173" y="191" type="curve"/>
      <point x="134" y="146"/>
      <point x="73" y="103"/>
      <point x="34" y="78" type="curve" smooth="yes"/>
      <point x="19" y="68"/>
      <point x="15" y="53"/>
      <point x="15" y="41" type="curve" smooth="yes"/>
      <point x="15" y="15"/>
      <point x="33" y="0"/>
    </contour>
  </outline>
</glyph>
<glyph name="uni1BE9" format="2">
  <unicode hex="1BE9"/>
  <outline>
    <contour>
      <point x="-540" y="552" type="curve" smooth="yes"/>
      <point x="-521" y="552"/>
      <point x="-481" y="557"/>
      <point x="-437" y="557" type="curve" smooth="yes"/>
      <point x="-399" y="557"/>
      <point x="-354" y="552"/>
      <point x="-334" y="552" type="curve" smooth="yes"/>
      <point x="-309" y="552"/>
      <point x="-293" y="562"/>
      <point x="-293" y="584" type="curve" smooth="yes"/>
      <point x="-293" y="624"/>
      <point x="-362" y="629"/>
      <point x="-437" y="629" type="curve" smooth="yes"/>
      <point x="-511" y="629"/>
      <point x="-581" y="624"/>
      <point x="-581" y="584" type="curve" smooth="yes"/>
      <point x="-581" y="562"/>
      <point x="-565" y="552"/>
    </contour>
  </outline>
</glyph>
<glyph name="uni1BEA" format="2">
  <advance width="483"/>
  <unicode hex="1BEA"/>
  <outline>
    <contour>
      <point x="216" y="0" type="curve" smooth="yes"/>
      <point x="344" y="0"/>
      <point x="434" y="92"/>
      <point x="434" y="205" type="curve" smooth="yes"/>
      <point x="434" y="311"/>
      <point x="354" y="395"/>
      <point x="230" y="395" type="curve" smooth="yes"/>
      <point x="105" y="395"/>
      <point x="15" y="304"/>
      <point x="15" y="189" type="curve" smooth="yes"/>
      <point x="15" y="84"/>
      <point x="94" y="0"/>
    </contour>
    <contour>
      <point x="219" y="83" type="curve" smooth="yes"/>
      <point x="150" y="83"/>
      <point x="103" y="131"/>
      <point x="103" y="192" type="curve" smooth="yes"/>
      <point x="103" y="264"/>
      <point x="164" y="312"/>
      <point x="227" y="312" type="curve" smooth="yes"/>
      <point x="297" y="312"/>
      <point x="345" y="263"/>
      <point x="345" y="202" type="curve" smooth="yes"/>
      <point x="345" y="136"/>
      <point x="293" y="83"/>
    </contour>
  </outline>
</glyph>
<glyph name="uni1BEB" format="2">
  <advance width="347"/>
  <unicode hex="1BEB"/>
  <outline>
    <contour>
      <point x="56" y="265" type="curve" smooth="yes"/>
      <point x="75" y="265"/>
      <point x="109" y="271"/>
      <point x="154" y="271" type="curve" smooth="yes"/>
      <point x="192" y="271"/>
      <point x="237" y="265"/>
      <point x="257" y="265" type="curve" smooth="yes"/>
      <point x="282" y="265"/>
      <point x="298" y="275"/>
      <point x="298" y="297" type="curve" smooth="yes"/>
      <point x="298" y="338"/>
      <point x="231" y="342"/>
      <point x="154" y="342" type="curve" smooth="yes"/>
      <point x="81" y="342"/>
      <point x="15" y="338"/>
      <point x="15" y="297" type="curve" smooth="yes"/>
      <point x="15" y="275"/>
      <point x="31" y="265"/>
    </contour>
    <contour>
      <point x="56" y="102" type="curve" smooth="yes"/>
      <point x="75" y="102"/>
      <point x="109" y="107"/>
      <point x="154" y="107" type="curve" smooth="yes"/>
      <point x="192" y="107"/>
      <point x="237" y="102"/>
      <point x="257" y="102" type="curve" smooth="yes"/>
      <point x="282" y="102"/>
      <point x="298" y="111"/>
      <point x="298" y="134" type="curve" smooth="yes"/>
      <point x="298" y="173"/>
      <point x="230" y="179"/>
      <point x="154" y="179" type="curve" smooth="yes"/>
      <point x="83" y="179"/>
      <point x="15" y="174"/>
      <point x="15" y="134" type="curve" smooth="yes"/>
      <point x="15" y="111"/>
      <point x="31" y="102"/>
    </contour>
  </outline>
</glyph>
<glyph name="uni1BEE" format="2">
  <unicode hex="1BEE"/>
  <outline>
    <contour>
      <point x="55" y="-191" type="curve" smooth="yes"/>
      <point x="94" y="-191"/>
      <point x="270" y="-43"/>
      <point x="270" y="1" type="curve" smooth="yes"/>
      <point x="270" y="46"/>
      <point x="94" y="194"/>
      <point x="55" y="194" type="curve" smooth="yes"/>
      <point x="33" y="194"/>
      <point x="15" y="179"/>
      <point x="15" y="154" type="curve" smooth="yes"/>
      <point x="15" y="142"/>
      <point x="19" y="127"/>
      <point x="34" y="117" type="curve" smooth="yes"/>
      <point x="75" y="90"/>
      <point x="133" y="48"/>
      <point x="173" y="0" type="curve"/>
      <point x="134" y="-45"/>
      <point x="72" y="-87"/>
      <point x="34" y="-113" type="curve" smooth="yes"/>
      <point x="18" y="-124"/>
      <point x="15" y="-138"/>
      <point x="15" y="-150" type="curve" smooth="yes"/>
      <point x="15" y="-176"/>
      <point x="33" y="-191"/>
    </contour>
  </outline>
</glyph>
<glyph name="uni1BEF" format="2">
  <unicode hex="1BEF"/>
  <outline>
    <contour>
      <point x="-379" y="552" type="curve" smooth="yes"/>
      <point x="-370" y="552"/>
      <point x="-355" y="554"/>
      <point x="-348" y="559" type="curve" smooth="yes"/>
      <point x="-319" y="578"/>
      <point x="-263" y="610"/>
      <point x="-238" y="623" type="curve" smooth="yes"/>
      <point x="-212" y="636"/>
      <point x="-161" y="657"/>
      <point x="-128" y="665" type="curve" smooth="yes"/>
      <point x="-107" y="670"/>
      <point x="-101" y="689"/>
      <point x="-101" y="703" type="curve" smooth="yes"/>
      <point x="-101" y="724"/>
      <point x="-118" y="736"/>
      <point x="-138" y="736" type="curve" smooth="yes"/>
      <point x="-165" y="736"/>
      <point x="-221" y="713"/>
      <point x="-270" y="690" type="curve" smooth="yes"/>
      <point x="-327" y="663"/>
      <point x="-374" y="638"/>
      <point x="-389" y="625" type="curve" smooth="yes"/>
      <point x="-399" y="617"/>
      <point x="-415" y="606"/>
      <point x="-415" y="588" type="curve" smooth="yes"/>
      <point x="-415" y="567"/>
      <point x="-400" y="552"/>
    </contour>
  </outline>
</glyph>
<glyph name="uni1BF0" format="2">
  <unicode hex="1BF0"/>
  <outline>
    <contour>
      <point x="-71" y="552" type="curve" smooth="yes"/>
      <point x="-52" y="552"/>
      <point x="-13" y="557"/>
      <point x="32" y="557" type="curve" smooth="yes"/>
      <point x="70" y="557"/>
      <point x="115" y="552"/>
      <point x="135" y="552" type="curve" smooth="yes"/>
      <point x="160" y="552"/>
      <point x="176" y="562"/>
      <point x="176" y="584" type="curve" smooth="yes"/>
      <point x="176" y="603"/>
      <point x="165" y="610"/>
      <point x="141" y="619" type="curve" smooth="yes"/>
      <point x="126" y="625"/>
      <point x="80" y="629"/>
      <point x="32" y="629" type="curve" smooth="yes"/>
      <point x="-22" y="629"/>
      <point x="-63" y="625"/>
      <point x="-78" y="619" type="curve" smooth="yes"/>
      <point x="-101" y="610"/>
      <point x="-112" y="603"/>
      <point x="-112" y="584" type="curve" smooth="yes"/>
      <point x="-112" y="562"/>
      <point x="-96" y="552"/>
    </contour>
  </outline>
</glyph>
<glyph name="uni1BF1" format="2">
  <unicode hex="1BF1"/>
  <outline>
    <contour>
      <point x="-71" y="691" type="curve" smooth="yes"/>
      <point x="-52" y="691"/>
      <point x="-22" y="696"/>
      <point x="22" y="696" type="curve" smooth="yes"/>
      <point x="60" y="696"/>
      <point x="96" y="691"/>
      <point x="115" y="691" type="curve" smooth="yes"/>
      <point x="140" y="691"/>
      <point x="156" y="701"/>
      <point x="156" y="723" type="curve" smooth="yes"/>
      <point x="156" y="761"/>
      <point x="94" y="768"/>
      <point x="22" y="768" type="curve" smooth="yes"/>
      <point x="-49" y="768"/>
      <point x="-112" y="762"/>
      <point x="-112" y="723" type="curve" smooth="yes"/>
      <point x="-112" y="701"/>
      <point x="-96" y="691"/>
    </contour>
    <contour>
      <point x="-71" y="552" type="curve" smooth="yes"/>
      <point x="-52" y="552"/>
      <point x="-22" y="557"/>
      <point x="22" y="557" type="curve" smooth="yes"/>
      <point x="60" y="557"/>
      <point x="96" y="552"/>
      <point x="115" y="552" type="curve" smooth="yes"/>
      <point x="140" y="552"/>
      <point x="156" y="562"/>
      <point x="156" y="584" type="curve" smooth="yes"/>
      <point x="156" y="622"/>
      <point x="93" y="629"/>
      <point x="22" y="629" type="curve" smooth="yes"/>
      <point x="-46" y="629"/>
      <point x="-112" y="624"/>
      <point x="-112" y="584" type="curve" smooth="yes"/>
      <point x="-112" y="562"/>
      <point x="-96" y="552"/>
    </contour>
  </outline>
</glyph>
<glyph name="uni1BFC" format="2">
  <advance width="1070"/>
  <unicode hex="1BFC"/>
  <outline>
    <contour>
      <point x="265" y="-24" type="curve" smooth="yes"/>
      <point x="291" y="-24"/>
      <point x="310" y="-7"/>
      <point x="310" y="12" type="curve" smooth="yes"/>
      <point x="310" y="34"/>
      <point x="298" y="41"/>
      <point x="279" y="47" type="curve" smooth="yes"/>
      <point x="250" y="57"/>
      <point x="190" y="77"/>
      <point x="190" y="109" type="curve" smooth="yes"/>
      <point x="190" y="137"/>
      <point x="213" y="154"/>
      <point x="248" y="173" type="curve" smooth="yes"/>
      <point x="312" y="208" type="line"/>
      <point x="355" y="167"/>
      <point x="427" y="113"/>
      <point x="527" y="113" type="curve" smooth="yes"/>
      <point x="634" y="113"/>
      <point x="700" y="165"/>
      <point x="750" y="213" type="curve"/>
      <point x="823" y="173" type="line" smooth="yes"/>
      <point x="857" y="154"/>
      <point x="880" y="137"/>
      <point x="880" y="109" type="curve" smooth="yes"/>
      <point x="880" y="77"/>
      <point x="820" y="57"/>
      <point x="792" y="47" type="curve" smooth="yes"/>
      <point x="772" y="40"/>
      <point x="761" y="34"/>
      <point x="761" y="12" type="curve" smooth="yes"/>
      <point x="761" y="-7"/>
      <point x="779" y="-24"/>
      <point x="806" y="-24" type="curve" smooth="yes"/>
      <point x="859" y="-24"/>
      <point x="963" y="15"/>
      <point x="963" y="117" type="curve" smooth="yes"/>
      <point x="963" y="172"/>
      <point x="928" y="210"/>
      <point x="841" y="256" type="curve"/>
      <point x="898" y="280"/>
      <point x="963" y="314"/>
      <point x="963" y="376" type="curve" smooth="yes"/>
      <point x="963" y="438"/>
      <point x="900" y="471"/>
      <point x="835" y="498" type="curve"/>
      <point x="921" y="543"/>
      <point x="963" y="580"/>
      <point x="963" y="641" type="curve" smooth="yes"/>
      <point x="963" y="743"/>
      <point x="859" y="781"/>
      <point x="806" y="781" type="curve" smooth="yes"/>
      <point x="779" y="781"/>
      <point x="761" y="764"/>
      <point x="761" y="745" type="curve" smooth="yes"/>
      <point x="761" y="723"/>
      <point x="772" y="715"/>
      <point x="792" y="709" type="curve" smooth="yes"/>
      <point x="820" y="700"/>
      <point x="880" y="680"/>
      <point x="880" y="648" type="curve" smooth="yes"/>
      <point x="880" y="620"/>
      <point x="857" y="603"/>
      <point x="823" y="584" type="curve" smooth="yes"/>
      <point x="751" y="544" type="line"/>
      <point x="701" y="593"/>
      <point x="635" y="646"/>
      <point x="527" y="646" type="curve" smooth="yes"/>
      <point x="426" y="646"/>
      <point x="354" y="591"/>
      <point x="311" y="549" type="curve"/>
      <point x="248" y="584" type="line" smooth="yes"/>
      <point x="213" y="603"/>
      <point x="190" y="620"/>
      <point x="190" y="648" type="curve" smooth="yes"/>
      <point x="190" y="680"/>
      <point x="250" y="700"/>
      <point x="279" y="709" type="curve" smooth="yes"/>
      <point x="298" y="715"/>
      <point x="310" y="723"/>
      <point x="310" y="745" type="curve" smooth="yes"/>
      <point x="310" y="764"/>
      <point x="291" y="781"/>
      <point x="265" y="781" type="curve" smooth="yes"/>
      <point x="211" y="781"/>
      <point x="107" y="743"/>
      <point x="107" y="641" type="curve" smooth="yes"/>
      <point x="107" y="586"/>
      <point x="138" y="551"/>
      <point x="239" y="495" type="curve"/>
      <point x="173" y="468"/>
      <point x="107" y="436"/>
      <point x="107" y="372" type="curve" smooth="yes"/>
      <point x="107" y="312"/>
      <point x="169" y="277"/>
      <point x="225" y="254" type="curve"/>
      <point x="136" y="205"/>
      <point x="107" y="169"/>
      <point x="107" y="117" type="curve" smooth="yes"/>
      <point x="107" y="15"/>
      <point x="211" y="-24"/>
    </contour>
    <contour>
      <point x="304" y="297" type="line"/>
      <point x="252" y="314"/>
      <point x="190" y="340"/>
      <point x="190" y="372" type="curve" smooth="yes"/>
      <point x="190" y="404"/>
      <point x="263" y="434"/>
      <point x="320" y="451" type="curve"/>
      <point x="451" y="378" type="line"/>
    </contour>
    <contour>
      <point x="527" y="191" type="curve" smooth="yes"/>
      <point x="463" y="191"/>
      <point x="413" y="226"/>
      <point x="382" y="248" type="curve"/>
      <point x="535" y="332" type="line"/>
      <point x="681" y="251" type="line"/>
      <point x="645" y="226"/>
      <point x="593" y="191"/>
    </contour>
    <contour>
      <point x="535" y="425" type="line"/>
      <point x="381" y="510" type="line"/>
      <point x="412" y="532"/>
      <point x="462" y="568"/>
      <point x="527" y="568" type="curve" smooth="yes"/>
      <point x="593" y="568"/>
      <point x="646" y="532"/>
      <point x="682" y="506" type="curve"/>
    </contour>
    <contour>
      <point x="761" y="300" type="curve"/>
      <point x="620" y="378" type="line"/>
      <point x="755" y="454" type="line"/>
      <point x="811" y="436"/>
      <point x="880" y="408"/>
      <point x="880" y="376" type="curve" smooth="yes"/>
      <point x="880" y="343"/>
      <point x="813" y="317"/>
    </contour>
  </outline>
</glyph>
<glyph name="uni1BFD" format="2">
  <advance width="1107"/>
  <unicode hex="1BFD"/>
  <outline>
    <contour>
      <point x="554" y="-64" type="curve"/>
      <point x="604" y="-32"/>
      <point x="704" y="51"/>
      <point x="704" y="185" type="curve" smooth="yes"/>
      <point x="704" y="201"/>
      <point x="701" y="218"/>
      <point x="696" y="233" type="curve"/>
      <point x="712" y="229"/>
      <point x="729" y="228"/>
      <point x="746" y="228" type="curve" smooth="yes"/>
      <point x="879" y="228"/>
      <point x="959" y="321"/>
      <point x="995" y="377" type="curve"/>
      <point x="962" y="427"/>
      <point x="879" y="527"/>
      <point x="746" y="527" type="curve" smooth="yes"/>
      <point x="729" y="527"/>
      <point x="712" y="524"/>
      <point x="696" y="519" type="curve"/>
      <point x="701" y="535"/>
      <point x="704" y="552"/>
      <point x="704" y="569" type="curve" smooth="yes"/>
      <point x="704" y="703"/>
      <point x="604" y="786"/>
      <point x="554" y="818" type="curve"/>
      <point x="498" y="783"/>
      <point x="404" y="703"/>
      <point x="404" y="569" type="curve" smooth="yes"/>
      <point x="404" y="552"/>
      <point x="406" y="535"/>
      <point x="410" y="520" type="curve"/>
      <point x="395" y="524"/>
      <point x="378" y="527"/>
      <point x="361" y="527" type="curve" smooth="yes"/>
      <point x="228" y="527"/>
      <point x="145" y="427"/>
      <point x="112" y="377" type="curve"/>
      <point x="148" y="321"/>
      <point x="228" y="228"/>
      <point x="361" y="228" type="curve" smooth="yes"/>
      <point x="378" y="228"/>
      <point x="395" y="229"/>
      <point x="410" y="233" type="curve"/>
      <point x="406" y="218"/>
      <point x="404" y="202"/>
      <point x="404" y="185" type="curve" smooth="yes"/>
      <point x="404" y="51"/>
      <point x="498" y="-29"/>
    </contour>
    <contour>
      <point x="554" y="33" type="curve"/>
      <point x="531" y="50"/>
      <point x="482" y="104"/>
      <point x="482" y="183" type="curve" smooth="yes"/>
      <point x="482" y="244"/>
      <point x="533" y="304"/>
      <point x="555" y="326" type="curve"/>
      <point x="590" y="295"/>
      <point x="625" y="246"/>
      <point x="625" y="183" type="curve" smooth="yes"/>
      <point x="625" y="105"/>
      <point x="574" y="49"/>
    </contour>
    <contour>
      <point x="360" y="306" type="curve" smooth="yes"/>
      <point x="281" y="306"/>
      <point x="227" y="354"/>
      <point x="210" y="377" type="curve"/>
      <point x="226" y="397"/>
      <point x="282" y="449"/>
      <point x="360" y="449" type="curve" smooth="yes"/>
      <point x="418" y="449"/>
      <point x="466" y="419"/>
      <point x="502" y="378" type="curve"/>
      <point x="480" y="356"/>
      <point x="420" y="306"/>
    </contour>
    <contour>
      <point x="556" y="427" type="curve"/>
      <point x="534" y="449"/>
      <point x="482" y="509"/>
      <point x="482" y="571" type="curve" smooth="yes"/>
      <point x="482" y="649"/>
      <point x="531" y="704"/>
      <point x="554" y="721" type="curve"/>
      <point x="574" y="705"/>
      <point x="625" y="649"/>
      <point x="625" y="571" type="curve" smooth="yes"/>
      <point x="625" y="513"/>
      <point x="597" y="467"/>
    </contour>
    <contour>
      <point x="748" y="306" type="curve" smooth="yes"/>
      <point x="686" y="306"/>
      <point x="625" y="357"/>
      <point x="604" y="379" type="curve"/>
      <point x="645" y="421"/>
      <point x="690" y="449"/>
      <point x="748" y="449" type="curve" smooth="yes"/>
      <point x="826" y="449"/>
      <point x="881" y="397"/>
      <point x="897" y="377" type="curve"/>
      <point x="881" y="354"/>
      <point x="826" y="306"/>
    </contour>
  </outline>
</glyph>
<glyph name="uni1BFE" format="2">
  <advance width="851"/>
  <unicode hex="1BFE"/>
  <outline>
    <contour>
      <point x="579" y="-15" type="curve" smooth="yes"/>
      <point x="628" y="-15"/>
      <point x="729" y="63"/>
      <point x="729" y="195" type="curve" smooth="yes"/>
      <point x="729" y="249"/>
      <point x="714" y="304"/>
      <point x="692" y="354" type="curve" smooth="yes"/>
      <point x="651" y="446" type="line" smooth="yes"/>
      <point x="636" y="479"/>
      <point x="622" y="518"/>
      <point x="622" y="570" type="curve" smooth="yes"/>
      <point x="622" y="693"/>
      <point x="718" y="704"/>
      <point x="718" y="739" type="curve" smooth="yes"/>
      <point x="718" y="769"/>
      <point x="696" y="781"/>
      <point x="678" y="781" type="curve" smooth="yes"/>
      <point x="628" y="781"/>
      <point x="527" y="703"/>
      <point x="527" y="571" type="curve" smooth="yes"/>
      <point x="527" y="518"/>
      <point x="542" y="462"/>
      <point x="564" y="413" type="curve" smooth="yes"/>
      <point x="605" y="320" type="line" smooth="yes"/>
      <point x="620" y="286"/>
      <point x="634" y="249"/>
      <point x="634" y="197" type="curve" smooth="yes"/>
      <point x="634" y="74"/>
      <point x="539" y="63"/>
      <point x="539" y="27" type="curve" smooth="yes"/>
      <point x="539" y="-2"/>
      <point x="560" y="-15"/>
    </contour>
    <contour>
      <point x="173" y="-15" type="curve" smooth="yes"/>
      <point x="223" y="-15"/>
      <point x="324" y="63"/>
      <point x="324" y="195" type="curve" smooth="yes"/>
      <point x="324" y="249"/>
      <point x="309" y="304"/>
      <point x="287" y="354" type="curve" smooth="yes"/>
      <point x="246" y="446" type="line" smooth="yes"/>
      <point x="231" y="479"/>
      <point x="217" y="518"/>
      <point x="217" y="570" type="curve" smooth="yes"/>
      <point x="217" y="693"/>
      <point x="313" y="704"/>
      <point x="313" y="739" type="curve" smooth="yes"/>
      <point x="313" y="769"/>
      <point x="291" y="781"/>
      <point x="272" y="781" type="curve" smooth="yes"/>
      <point x="223" y="781"/>
      <point x="122" y="703"/>
      <point x="122" y="571" type="curve" smooth="yes"/>
      <point x="122" y="518"/>
      <point x="137" y="463"/>
      <point x="159" y="413" type="curve" smooth="yes"/>
      <point x="200" y="320" type="line" smooth="yes"/>
      <point x="215" y="287"/>
      <point x="229" y="249"/>
      <point x="229" y="197" type="curve" smooth="yes"/>
      <point x="229" y="74"/>
      <point x="133" y="63"/>
      <point x="133" y="27" type="curve" smooth="yes"/>
      <point x="133" y="-2"/>
      <point x="155" y="-15"/>
    </contour>
    <contour>
      <point x="383" y="-15" type="curve" smooth="yes"/>
      <point x="433" y="-15"/>
      <point x="534" y="63"/>
      <point x="534" y="195" type="curve" smooth="yes"/>
      <point x="534" y="249"/>
      <point x="519" y="304"/>
      <point x="497" y="354" type="curve" smooth="yes"/>
      <point x="456" y="446" type="line" smooth="yes"/>
      <point x="441" y="479"/>
      <point x="427" y="518"/>
      <point x="427" y="570" type="curve" smooth="yes"/>
      <point x="427" y="693"/>
      <point x="522" y="704"/>
      <point x="522" y="739" type="curve" smooth="yes"/>
      <point x="522" y="769"/>
      <point x="501" y="781"/>
      <point x="482" y="781" type="curve" smooth="yes"/>
      <point x="433" y="781"/>
      <point x="332" y="703"/>
      <point x="332" y="571" type="curve" smooth="yes"/>
      <point x="332" y="518"/>
      <point x="347" y="463"/>
      <point x="369" y="413" type="curve" smooth="yes"/>
      <point x="410" y="320" type="line" smooth="yes"/>
      <point x="425" y="287"/>
      <point x="439" y="249"/>
      <point x="439" y="197" type="curve" smooth="yes"/>
      <point x="439" y="74"/>
      <point x="343" y="63"/>
      <point x="343" y="27" type="curve" smooth="yes"/>
      <point x="343" y="-2"/>
      <point x="365" y="-15"/>
    </contour>
  </outline>
</glyph>
<glyph name="uni1BFF" format="2">
  <advance width="688"/>
  <unicode hex="1BFF"/>
  <outline>
    <contour>
      <point x="175" y="-15" type="curve" smooth="yes"/>
      <point x="213" y="-15"/>
      <point x="249" y="-5"/>
      <point x="283" y="7" type="curve" smooth="yes"/>
      <point x="441" y="64"/>
      <point x="527" y="208"/>
      <point x="527" y="382" type="curve" smooth="yes"/>
      <point x="527" y="552"/>
      <point x="453" y="695"/>
      <point x="282" y="760" type="curve" smooth="yes"/>
      <point x="249" y="773"/>
      <point x="206" y="781"/>
      <point x="175" y="781" type="curve" smooth="yes"/>
      <point x="145" y="781"/>
      <point x="132" y="756"/>
      <point x="132" y="737" type="curve" smooth="yes"/>
      <point x="132" y="711"/>
      <point x="153" y="699"/>
      <point x="175" y="695" type="curve" smooth="yes"/>
      <point x="213" y="688"/>
      <point x="241" y="681"/>
      <point x="259" y="675" type="curve" smooth="yes"/>
      <point x="402" y="628"/>
      <point x="439" y="490"/>
      <point x="439" y="382" type="curve" smooth="yes"/>
      <point x="439" y="271"/>
      <point x="403" y="140"/>
      <point x="255" y="90" type="curve" smooth="yes"/>
      <point x="223" y="79"/>
      <point x="185" y="73"/>
      <point x="169" y="70" type="curve" smooth="yes"/>
      <point x="154" y="67"/>
      <point x="132" y="57"/>
      <point x="132" y="31" type="curve" smooth="yes"/>
      <point x="132" y="12"/>
      <point x="145" y="-15"/>
    </contour>
  </outline>
</glyph>
